<?xml version="1.0" standalone="no"?>
<!DOCTYPE svg PUBLIC "-//W3C//DTD SVG 20010904//EN"
 "http://www.w3.org/TR/2001/REC-SVG-20010904/DTD/svg10.dtd">
<svg version="1.0" xmlns="http://www.w3.org/2000/svg"
 width="14.000000pt" height="10.000000pt" viewBox="0 0 14.000000 10.000000"
 preserveAspectRatio="xMidYMid meet">

<g transform="translate(0.000000,10.000000) scale(0.100000,-0.100000)"
fill="#000000" stroke="none">
<path d="M0 50 l0 -50 70 0 70 0 0 50 0 50 -70 0 -70 0 0 -50z m102 16 c18 16
24 19 14 7 -19 -23 -19 -23 0 -45 16 -19 16 -20 1 -9 -24 19 -58 20 -87 3
l-25 -15 19 21 c19 22 19 22 0 45 -10 12 -4 9 14 -7 l32 -30 32 30z"/>
</g>
</svg>
